<svg viewBox="0 0 1997 416" fill="none" xmlns="http://www.w3.org/2000/svg">
    <path d="M12.6666 288.032C16.9547 288.252 21.2512 288.252 25.5392 288.032C29.5554 288.032 32.9538 287.106 35.8373 286.592C39.0013 286.151 42.1321 285.498 45.2085 284.637L43.4578 294.307H0C0 293.484 0.514903 292.455 0.720864 291.221C0.805907 289.679 0.805907 288.133 0.720864 286.592C0.720864 284.843 0.720864 282.58 0.720864 280.111C0.720864 277.642 0.720864 274.659 0.720864 271.264V231.248C0.720864 227.854 0.720864 224.87 0.720864 222.402C0.720864 219.933 0.720864 217.67 0.720864 215.818C0.805907 214.276 0.805907 212.731 0.720864 211.189C0.720864 209.955 0.720864 208.926 0 208H14.3143C14.3143 208.926 14.3143 209.955 13.6964 211.189C13.0785 212.423 13.6964 213.966 13.0785 215.818C12.4607 217.67 13.0785 219.83 13.0785 222.402C13.0785 224.973 13.0785 227.854 13.0785 231.248L12.6666 288.032Z" fill="currentColor"/>
    <path d="M140.157 293.484C140.157 293.484 140.157 292.969 140.157 292.661C140.203 292.285 140.203 291.905 140.157 291.529C140.119 290.144 139.946 288.766 139.642 287.414C139.139 285.514 138.485 283.656 137.685 281.859L130.476 265.606H92.6826L85.7829 281.345C85.268 282.888 84.5471 284.431 83.9292 286.18C83.2508 287.882 82.9014 289.697 82.8994 291.529C82.8445 291.973 82.8445 292.422 82.8994 292.866C82.9153 293.072 82.9153 293.278 82.8994 293.484H71.0566C72.1293 292.275 73.0302 290.925 73.7341 289.472C75.0416 287.142 76.2107 284.738 77.2355 282.271L111.528 205.737H116.265L148.807 278.671C149.528 280.419 150.352 282.065 151.176 283.711L153.441 288.032L155.295 291.22L156.531 292.866L140.157 293.484ZM101.333 260.051H128.211L111.425 222.093L94.9481 260.257L101.333 260.051Z" fill="currentColor"/>
    <path d="M352.091 189.381C358.276 189.436 364.406 190.55 370.215 192.673C375.527 194.111 380.315 197.038 384.015 201.108L337.571 315.189C345.294 307.885 355.386 299.039 367.641 288.752C379.896 278.465 395.24 266.018 413.673 251.308C432.107 236.597 445.803 225.591 454.865 217.978L460.941 223.842C412.699 262.608 366.47 303.809 322.432 347.284C313.231 365.073 302.259 381.891 289.685 397.484C284.774 403.607 279.059 409.039 272.693 413.634C271.432 414.85 269.881 415.725 268.187 416.175C266.493 416.625 264.712 416.636 263.013 416.206C261.533 415.941 260.189 415.179 259.202 414.046C258.209 413.133 257.434 412.008 256.937 410.754C256.552 409.165 256.552 407.508 256.937 405.919C259.598 398.669 263.578 391.973 268.677 386.168C278.328 373.628 288.641 361.61 299.571 350.164C301.939 347.49 305.338 344.095 309.869 339.877C313.885 332.059 317.695 324.139 321.197 316.115L344.161 261.389C337.346 269.318 329.795 276.585 321.609 283.094C311.314 291.738 299.702 298.684 287.213 303.668C282.179 305.515 276.804 306.252 271.457 305.828C268.856 305.622 266.334 304.842 264.072 303.543C261.81 302.244 259.865 300.46 258.378 298.319C255.557 293.586 254.672 287.948 255.907 282.58C257.027 276.081 259.073 269.776 261.983 263.858C269.318 249.058 278.868 235.46 290.302 223.533C301.877 210.577 316.243 200.412 332.319 193.804C338.016 191.491 344.015 190.002 350.134 189.381H352.091ZM352.915 202.137C347.728 202.264 342.617 203.418 337.88 205.531C323.869 211.51 311.352 220.501 301.218 231.866C290.594 242.589 281.825 254.999 275.267 268.59C272.906 273.505 271.143 278.685 270.015 284.02C269.38 286.473 269.673 289.073 270.839 291.323C271.458 292.09 272.338 292.603 273.311 292.764C276.363 292.936 279.41 292.335 282.167 291.015C293.11 286.828 303.222 280.732 312.031 273.013C323.52 263.525 333.885 252.757 342.926 240.918C351.682 229.759 358.632 217.298 363.522 203.988C360.687 202.785 357.642 202.156 354.562 202.137H352.915Z" fill="currentColor"/>
    <path d="M467.223 182.694L480.199 187.838C469.616 210.063 460.298 232.867 452.291 256.142C457.896 245.984 464.821 236.61 472.887 228.265C478.642 222.468 485.324 217.671 492.659 214.069C495.434 212.848 498.432 212.217 501.464 212.217C504.496 212.217 507.495 212.848 510.269 214.069C517.234 217.367 523.176 222.486 527.467 228.882C530.225 232.382 533.407 235.527 536.941 238.243C539.901 240.553 543.49 241.916 547.239 242.152C550.66 242.551 554.116 242.551 557.537 242.152C561.571 241.33 565.459 239.908 569.071 237.935C573.214 235.829 577.237 233.493 581.12 230.94C584.621 228.677 589.358 225.385 595.331 221.27L600.171 227.442C565.844 256.588 538.623 258.92 518.507 234.437C515.315 230.837 512.946 228.265 511.505 226.928C509.767 225.508 507.659 224.615 505.429 224.356C502.298 224.161 499.209 225.153 496.779 227.134C492.255 230.401 488.048 234.086 484.215 238.14C471.473 251.685 460.975 267.173 453.115 284.02L442.817 304.593C441.348 307.121 439.732 309.56 437.977 311.897C437.228 313.077 436.247 314.092 435.093 314.88C433.464 316.111 431.471 316.762 429.429 316.732C428.201 316.706 426.991 316.427 425.875 315.914C424.759 315.401 423.76 314.664 422.941 313.749C422.379 312.724 421.996 311.611 421.809 310.457V306.445C422.323 303.976 422.941 300.787 423.765 296.878C425.928 288.855 429.223 278.465 433.445 266.018C442.924 237.556 454.206 209.725 467.223 182.694Z" fill="currentColor"/>
    <path d="M649.807 180.225C652.285 180.028 654.775 180.419 657.073 181.366C659.371 182.314 661.411 183.791 663.028 185.677C664.645 187.563 665.792 189.804 666.376 192.218C666.96 194.632 666.964 197.149 666.387 199.565C663.429 211.673 656.094 222.262 645.791 229.294C629.172 241.318 610.4 250.047 590.491 255.011C587.743 262.26 586.55 270.005 586.989 277.745C587.692 283.628 590.423 289.084 594.713 293.175C598.729 296.379 603.683 298.186 608.821 298.318C623 298.876 637.111 296.092 650.013 290.192C664.996 284.047 679.118 275.991 692.03 266.223C703.34 257.812 714.202 248.816 724.571 239.272C731.235 233.27 737.432 226.771 743.108 219.83L750.832 224.973C741.954 234.782 732.57 244.122 722.718 252.953C711.649 262.997 699.991 272.375 687.807 281.036C675.064 290.194 661.226 297.728 646.615 303.462C634.223 308.754 620.855 311.382 607.379 311.177C598.94 311.141 590.78 308.157 584.312 302.742C577.823 296.754 573.573 288.734 572.263 280.008C570.896 265.066 574.13 250.064 581.531 237.009C588.781 221.973 598.93 208.515 611.396 197.404C621.617 187.108 635.311 180.983 649.807 180.225ZM648.778 192.981C638.647 194.494 629.284 199.26 622.106 206.56C612.049 215.991 603.658 227.05 597.287 239.272C611.291 234.972 624.431 228.252 636.111 219.418C644.108 214.498 650.01 206.808 652.691 197.816C653.117 196.477 653.117 195.04 652.691 193.701C652.119 193.328 651.479 193.072 650.807 192.948C650.135 192.825 649.445 192.836 648.778 192.981Z" fill="currentColor"/>
    <path d="M795.628 180.225C798.106 180.028 800.596 180.419 802.894 181.366C805.191 182.314 807.232 183.791 808.849 185.677C810.466 187.563 811.613 189.804 812.197 192.218C812.781 194.632 812.785 197.149 812.208 199.565C809.333 211.711 801.978 222.327 791.612 229.294C774.993 241.318 756.221 250.047 736.311 255.011C733.736 262.301 732.617 270.024 733.016 277.745C733.719 283.628 736.449 289.084 740.739 293.175C744.755 296.379 749.71 298.186 754.848 298.318C769.028 298.895 783.144 296.11 796.04 290.192C811.022 284.047 825.145 275.991 838.056 266.223C849.387 257.839 860.25 248.841 870.598 239.272C877.289 233.265 883.519 226.766 889.238 219.83L896.858 224.973C888.517 234.231 879.145 243.592 868.847 252.953C857.842 262.987 846.253 272.365 834.143 281.036C821.427 290.237 807.583 297.774 792.951 303.462C780.559 308.754 767.191 311.382 753.715 311.177C745.445 311.065 737.472 308.083 731.162 302.742C724.642 296.764 720.356 288.745 719.011 280.008C717.689 265.069 720.92 250.081 728.279 237.009C735.531 221.947 745.719 208.483 758.246 197.404C768.185 187.305 781.484 181.194 795.628 180.225ZM794.907 192.981C784.769 194.472 775.4 199.242 768.235 206.56C758.142 215.851 749.683 226.77 743.211 238.86C757.174 234.539 770.277 227.821 781.932 219.007C789.962 214.124 795.875 206.419 798.512 197.404C798.991 196.075 798.991 194.619 798.512 193.29C797.964 192.994 797.362 192.814 796.742 192.761C796.122 192.707 795.497 192.783 794.907 192.981Z" fill="currentColor"/>
    <path d="M896.652 195.45L909.628 200.593C888.345 253.673 876.743 284.534 874.82 293.175C874.878 293.55 874.878 293.932 874.82 294.307C879.866 289.163 886.766 281.859 895.416 272.601C904.067 263.343 910.864 255.114 916.527 249.353C922.533 243.196 928.857 237.359 935.476 231.865C942.851 225.224 950.972 219.459 959.676 214.686C962.723 212.81 966.111 211.554 969.646 210.989C973.18 210.424 976.792 210.562 980.272 211.395C983.388 212.601 986.122 214.623 988.187 217.247C990.252 219.871 991.574 223.001 992.012 226.31C993.168 234.844 993.168 243.494 992.012 252.028C990.159 273.356 994.484 285.083 1004.99 287.209C1010.44 287.642 1015.92 287.049 1021.16 285.46C1027.43 283.665 1033.46 281.072 1039.07 277.745C1045.12 274.041 1050.99 270.132 1056.68 266.018C1062.67 261.569 1068.42 256.796 1073.88 251.719C1079.65 246.37 1084.18 241.432 1088.2 238.14C1092.21 234.849 1095.92 230.425 1100.14 226.002C1104.36 221.579 1106.63 219.213 1107.14 218.698L1114.46 224.973C1098.59 241.917 1081.77 257.956 1064.1 273.013C1052.02 283.697 1038.05 292.035 1022.91 297.598C1016.73 299.903 1010.13 300.885 1003.55 300.479C997.176 300.212 991.128 297.612 986.554 293.175C978.522 285.357 975.535 271.367 977.698 251.308C978.547 243.891 978.547 236.402 977.698 228.985C976.874 225.796 975.947 224.047 974.815 223.636C971.981 223.743 969.22 224.556 966.782 226.002C958.88 230.201 951.544 235.386 944.95 241.432C938.085 247.124 927.993 257.102 914.674 271.367C901.355 285.631 890.645 296.432 882.544 303.77C875.541 310.148 869.362 311.794 864.007 308.605C862.566 307.633 861.394 306.312 860.601 304.765C859.809 303.218 859.422 301.495 859.476 299.759C859.326 296.285 859.743 292.811 860.712 289.472C861.536 286.283 862.566 282.785 863.801 279.185C865.037 275.584 866.788 270.235 869.259 263.96C871.731 257.685 873.894 252.028 875.85 246.781L885.633 222.916L896.652 195.45Z" fill="currentColor"/>
    <path d="M1197.77 202.445C1192.68 202.432 1187.59 202.706 1182.53 203.268C1177.89 203.268 1173.98 204.297 1170.68 204.811C1167.39 205.325 1163.48 206.354 1160.39 207.177L1162.45 195.553H1165.02H1243.39H1246.07L1248.13 207.177C1245.04 206.354 1241.64 205.531 1237.83 204.811C1234.02 204.091 1230.62 203.68 1226.09 203.268C1221.03 202.706 1215.94 202.432 1210.85 202.445V270.853C1210.85 274.967 1210.85 278.465 1210.85 281.14C1210.85 283.814 1210.85 286.797 1210.85 288.958C1210.91 290.822 1211.12 292.679 1211.46 294.512C1211.46 295.953 1211.46 297.187 1212.29 298.216H1195.19C1195.19 297.187 1195.19 295.953 1195.91 294.512C1196.63 293.072 1195.91 291.221 1196.53 288.958C1197.15 286.694 1196.53 284.123 1196.53 281.14C1196.53 278.156 1196.53 274.556 1196.53 270.853L1197.77 202.445Z" fill="currentColor"/>
    <path d="M1331.85 194.421C1339.41 194.361 1346.91 195.686 1353.99 198.33C1360.48 200.833 1366.43 204.571 1371.5 209.337C1376.5 214.114 1380.43 219.9 1383.03 226.311C1385.89 233.259 1387.33 240.709 1387.25 248.222C1387.22 252.728 1386.67 257.215 1385.6 261.595C1384.6 265.926 1383.05 270.11 1380.97 274.042C1378.96 277.993 1376.43 281.659 1373.45 284.946C1370.47 288.29 1366.99 291.168 1363.15 293.484C1359.24 295.959 1355.02 297.897 1350.59 299.244C1345.73 300.597 1340.7 301.255 1335.66 301.199C1328.14 301.294 1320.67 300.004 1313.62 297.393C1307.14 295.142 1301.15 291.647 1296.01 287.106C1291.06 282.322 1287.14 276.582 1284.48 270.235C1281.64 263.283 1280.24 255.83 1280.36 248.324C1280.36 243.788 1280.88 239.267 1281.9 234.849C1282.92 230.523 1284.48 226.341 1286.54 222.402C1288.57 218.458 1291.06 214.765 1293.95 211.395C1296.99 208.077 1300.45 205.172 1304.25 202.754C1308.14 200.276 1312.38 198.371 1316.81 197.096C1321.67 195.489 1326.73 194.588 1331.85 194.421ZM1335.86 294.718C1340.88 294.748 1345.86 293.769 1350.49 291.838C1354.81 289.896 1358.68 287.056 1361.82 283.506C1365.16 279.63 1367.68 275.115 1369.23 270.235C1371.12 264.497 1372.03 258.48 1371.91 252.439C1372 245.496 1371.13 238.574 1369.33 231.866C1367.84 226.003 1365.3 220.46 1361.82 215.509C1358.48 210.974 1354.1 207.305 1349.05 204.811C1344.07 202.443 1338.66 201.12 1333.15 200.925C1327.64 200.731 1322.15 201.668 1317.02 203.68C1312.7 205.583 1308.84 208.389 1305.69 211.909C1302.37 215.761 1299.85 220.237 1298.28 225.076C1296.43 230.826 1295.53 236.835 1295.6 242.872C1295.54 249.807 1296.37 256.721 1298.07 263.446C1299.58 269.354 1302.16 274.933 1305.69 279.905C1308.96 284.414 1313.22 288.11 1318.15 290.706C1323.63 293.498 1329.72 294.877 1335.86 294.718Z" fill="currentColor"/>
    <path d="M1506.3 224.253C1506.3 220.138 1506.3 216.641 1506.3 213.966C1506.3 211.292 1506.3 208.411 1506.3 206.148C1506.16 204.285 1505.92 202.43 1505.58 200.593C1505.58 199.05 1505.06 197.816 1504.86 196.89H1517.63C1517.24 198.097 1516.96 199.336 1516.8 200.593C1516.46 202.43 1516.22 204.285 1516.08 206.148C1516.08 208.411 1516.08 210.983 1516.08 213.966C1516.08 216.949 1516.08 220.55 1516.08 224.253V262.932C1516.25 268.892 1515.27 274.829 1513.2 280.419C1511.42 284.929 1508.64 288.975 1505.06 292.249C1501.42 295.403 1497.13 297.72 1492.5 299.039C1487.27 300.481 1481.86 301.174 1476.43 301.096C1470.98 301.149 1465.55 300.492 1460.27 299.141C1455.5 297.912 1451.05 295.705 1447.19 292.661C1443.4 289.549 1440.43 285.558 1438.54 281.037C1436.25 275.534 1435.16 269.607 1435.34 263.652V224.253C1435.34 220.138 1435.34 216.641 1435.34 213.966C1435.34 211.292 1435.34 208.411 1435.34 206.148C1435.24 204.287 1435.03 202.433 1434.73 200.593C1434.52 199.345 1434.24 198.109 1433.9 196.89H1451.1C1450.76 198.109 1450.48 199.345 1450.28 200.593C1450.28 202.034 1450.28 203.885 1449.56 206.148C1448.83 208.411 1449.56 210.983 1449.56 213.966C1449.56 216.949 1449.56 220.55 1449.56 224.253V264.475C1449.38 269.303 1450.26 274.113 1452.13 278.568C1453.6 281.995 1455.9 285.001 1458.82 287.312C1461.62 289.499 1464.85 291.076 1468.3 291.941C1475.41 293.588 1482.81 293.588 1489.92 291.941C1493.36 291.053 1496.59 289.479 1499.4 287.312C1502.26 284.965 1504.52 281.967 1505.99 278.568C1507.86 274.113 1508.74 269.303 1508.56 264.475L1506.3 224.253Z" fill="currentColor"/>
    <path d="M1649.65 211.909H1648.93C1645.01 208.359 1640.47 205.568 1635.54 203.68C1630.02 201.572 1624.15 200.525 1618.24 200.593C1612.59 200.535 1606.98 201.476 1601.66 203.371C1596.77 205.19 1592.33 208.044 1588.65 211.737C1584.97 215.431 1582.14 219.876 1580.34 224.768C1578.21 230.454 1577.16 236.491 1577.25 242.564C1577.22 249.524 1578.2 256.452 1580.13 263.137C1581.91 269.118 1584.81 274.704 1588.68 279.596C1592.54 284.246 1597.4 287.972 1602.89 290.5C1609.1 293.288 1615.86 294.659 1622.67 294.512C1625.44 294.51 1628.2 294.199 1630.9 293.587C1633.6 293.077 1636.23 292.248 1638.73 291.118C1641.24 290.009 1643.63 288.63 1645.84 287.003C1648.05 285.407 1650.09 283.579 1651.91 281.551L1652.74 282.065L1646.97 296.673C1643.12 298.064 1639.16 299.131 1635.13 299.862C1630.77 300.566 1626.36 300.91 1621.94 300.89C1613.72 300.998 1605.54 299.711 1597.74 297.084C1590.82 294.916 1584.38 291.422 1578.8 286.797C1573.5 282.132 1569.29 276.377 1566.44 269.927C1563.4 263.026 1561.89 255.552 1562.01 248.016C1561.97 238.917 1564.35 229.972 1568.91 222.093C1571.2 218.079 1574.01 214.38 1577.25 211.086C1580.61 207.736 1584.38 204.832 1588.48 202.445C1592.9 199.999 1597.6 198.099 1602.48 196.787C1607.9 195.395 1613.47 194.704 1619.06 194.73C1627.79 194.657 1636.46 196.084 1644.7 198.948L1649.65 211.909Z" fill="currentColor"/>
    <path d="M1766.32 249.765H1718.54H1710.3V270.955C1710.3 275.07 1710.3 278.568 1710.3 281.242C1710.3 283.917 1710.3 286.9 1710.3 289.06C1710.44 290.923 1710.69 292.777 1711.02 294.615C1711.2 295.869 1711.48 297.106 1711.85 298.318H1694.55C1694.91 297.106 1695.19 295.869 1695.37 294.615C1695.71 292.777 1695.95 290.923 1696.09 289.06C1696.09 286.9 1696.09 284.225 1696.09 281.242C1696.09 278.259 1696.09 274.659 1696.09 270.955V224.253C1696.09 220.138 1696.09 216.641 1696.09 213.966C1696.09 211.292 1696.09 208.411 1696.09 206.148C1695.95 204.285 1695.71 202.43 1695.37 200.593C1695.21 199.336 1694.93 198.097 1694.55 196.89H1711.85C1711.46 198.097 1711.18 199.336 1711.02 200.593C1710.68 202.43 1710.44 204.285 1710.3 206.148C1710.3 208.411 1710.3 210.983 1710.3 213.966C1710.3 216.949 1710.3 220.55 1710.3 224.253V242.564H1718.85H1739.45H1749.74H1759.11H1766.53V224.253C1766.53 220.138 1766.53 216.641 1766.53 213.966C1766.53 211.292 1766.53 208.411 1766.53 206.148C1766.47 204.283 1766.27 202.426 1765.91 200.593C1765.75 199.336 1765.48 198.097 1765.09 196.89H1781.56C1781.56 197.816 1781.05 199.05 1780.74 200.593C1780.43 202.136 1780.74 203.885 1780.12 206.148C1779.5 208.411 1780.12 210.983 1780.12 213.966C1780.12 216.949 1780.12 220.55 1780.12 224.253V270.853C1780.12 274.967 1780.12 278.465 1780.12 281.139C1780.12 283.814 1780.12 286.797 1780.12 288.957C1780.12 291.118 1780.12 292.969 1780.74 294.512L1781.56 298.318H1764.37C1764.73 297.106 1765.01 295.869 1765.19 294.615C1765.54 292.782 1765.75 290.925 1765.81 289.06C1765.81 286.9 1765.81 284.225 1765.81 281.242C1765.81 278.259 1765.81 274.659 1765.81 270.955L1766.32 249.765Z" fill="currentColor"/>
    <path d="M1724.44 110.962L1722.82 110.555L1723.06 109.576L1723.24 109.619L1723.04 110.402L1723.59 110.54L1723.77 109.808L1723.95 109.852L1723.76 110.584L1724.31 110.722L1724.51 109.927L1724.69 109.971L1724.44 110.962ZM1722.75 110.111L1722.43 109.825L1722.49 109.607L1722.79 109.946L1722.75 110.111Z" fill="currentColor"/>
    <path d="M1736.05 72.6029L1737.51 72.903L1737.52 72.8862L1736.57 71.7353L1736.68 71.5534L1737.8 72.9414L1737.69 73.1205L1735.94 72.7848L1736.05 72.6029Z" fill="currentColor"/>
    <path d="M1761.06 41.1926L1760.9 41.3348L1760.24 39.6863L1760.39 39.5463L1761.97 40.3723L1761.81 40.5145L1760.5 39.8077L1760.49 39.8164L1761.06 41.1926ZM1760.68 40.6568L1761.31 40.0837L1761.43 40.2166L1760.8 40.7897L1760.68 40.6568Z" fill="currentColor"/>
    <path d="M1794.13 14.9379C1794.09 14.8674 1794.02 14.8265 1793.94 14.8151C1793.86 14.8038 1793.77 14.8198 1793.68 14.8633C1793.61 14.8951 1793.56 14.9338 1793.52 14.9793C1793.48 15.0245 1793.46 15.0727 1793.45 15.1239C1793.44 15.1749 1793.44 15.2244 1793.47 15.2726C1793.49 15.3129 1793.51 15.343 1793.55 15.3629C1793.58 15.382 1793.61 15.3939 1793.65 15.3986C1793.69 15.4028 1793.73 15.4031 1793.77 15.3994C1793.81 15.3953 1793.85 15.3903 1793.88 15.3843L1794.05 15.3527C1794.1 15.3443 1794.15 15.3377 1794.2 15.333C1794.26 15.328 1794.32 15.3307 1794.38 15.3412C1794.44 15.3508 1794.49 15.3731 1794.55 15.408C1794.6 15.4428 1794.64 15.4957 1794.67 15.5664C1794.71 15.648 1794.73 15.7319 1794.72 15.8181C1794.7 15.9041 1794.67 15.9859 1794.6 16.0636C1794.54 16.141 1794.45 16.2073 1794.34 16.2625C1794.23 16.314 1794.13 16.3411 1794.03 16.3438C1793.94 16.3463 1793.85 16.3271 1793.78 16.2862C1793.7 16.2451 1793.64 16.1846 1793.6 16.1049L1793.78 16.0151C1793.82 16.0697 1793.86 16.1078 1793.91 16.1293C1793.96 16.15 1794.02 16.1572 1794.08 16.1508C1794.14 16.1437 1794.2 16.1259 1794.26 16.0974C1794.33 16.0641 1794.39 16.023 1794.43 15.974C1794.47 15.9245 1794.5 15.8716 1794.52 15.8153C1794.53 15.7586 1794.52 15.7027 1794.5 15.6477C1794.47 15.5975 1794.44 15.5634 1794.4 15.5453C1794.35 15.5272 1794.3 15.5191 1794.25 15.5212C1794.19 15.5233 1794.14 15.5296 1794.08 15.5401L1793.86 15.5754C1793.73 15.5977 1793.61 15.5937 1793.52 15.5635C1793.42 15.5333 1793.34 15.4674 1793.29 15.3656C1793.25 15.2811 1793.24 15.1965 1793.26 15.1118C1793.27 15.0264 1793.31 14.9478 1793.37 14.8759C1793.43 14.8034 1793.51 14.7442 1793.61 14.6983C1793.71 14.652 1793.8 14.6283 1793.89 14.6272C1793.99 14.6256 1794.07 14.6442 1794.14 14.6832C1794.21 14.7218 1794.27 14.7787 1794.31 14.8537L1794.13 14.9379Z" fill="currentColor"/>
    <path d="M1829.42 1.60177L1829.74 3.24392L1829.54 3.28239L1829.23 1.64024L1829.42 1.60177Z" fill="currentColor"/>
    <path d="M1905.77 6.28855L1905.12 7.82721L1904.94 7.75083L1904.61 6.18759L1904.6 6.18122L1904.08 7.3893L1903.9 7.31038L1904.55 5.77173L1904.73 5.84811L1905.06 7.41563L1905.07 7.42199L1905.59 6.2109L1905.77 6.28855Z" fill="currentColor"/>
    <path d="M1964.98 47.2182L1964.15 48.4596L1964.16 48.4753L1965.59 48.0282L1965.71 48.198L1964.01 48.7097L1963.88 48.5425L1964.85 47.0484L1964.98 47.2182Z" fill="currentColor"/>
    <path d="M1984.86 82.039L1986.42 81.457L1986.78 82.4032L1986.61 82.4657L1986.33 81.7094L1985.8 81.906L1986.06 82.6134L1985.89 82.6759L1985.63 81.9686L1985.1 82.1663L1985.38 82.9349L1985.21 82.9974L1984.86 82.039ZM1986.73 81.7868L1987.15 81.8418L1987.23 82.053L1986.79 81.9461L1986.73 81.7868Z" fill="currentColor"/>
    <path d="M1996.6 121.733C1996.66 121.712 1996.7 121.686 1996.74 121.654C1996.79 121.623 1996.82 121.586 1996.85 121.545C1996.88 121.503 1996.9 121.457 1996.92 121.405C1996.93 121.354 1996.93 121.298 1996.93 121.238C1996.93 121.139 1996.9 121.05 1996.84 120.972C1996.79 120.894 1996.71 120.833 1996.6 120.79C1996.5 120.748 1996.38 120.73 1996.23 120.738C1996.09 120.746 1995.97 120.776 1995.87 120.83C1995.78 120.884 1995.7 120.953 1995.66 121.038C1995.61 121.124 1995.59 121.218 1995.59 121.321C1995.6 121.417 1995.62 121.5 1995.67 121.571C1995.71 121.642 1995.78 121.696 1995.85 121.733C1995.93 121.77 1996.02 121.786 1996.12 121.781L1996.11 121.844L1996.09 121.341L1996.27 121.332L1996.3 121.968L1996.12 121.977C1995.98 121.985 1995.86 121.962 1995.76 121.908C1995.65 121.855 1995.57 121.779 1995.51 121.679C1995.45 121.58 1995.41 121.464 1995.41 121.331C1995.4 121.183 1995.43 121.052 1995.49 120.936C1995.55 120.821 1995.65 120.729 1995.77 120.659C1995.9 120.591 1996.05 120.552 1996.22 120.542C1996.36 120.535 1996.48 120.547 1996.58 120.576C1996.69 120.607 1996.78 120.653 1996.86 120.714C1996.94 120.775 1997 120.849 1997.05 120.937C1997.09 121.024 1997.12 121.121 1997.12 121.228C1997.13 121.316 1997.12 121.399 1997.09 121.476C1997.07 121.554 1997.04 121.625 1996.99 121.687C1996.95 121.75 1996.89 121.803 1996.83 121.847C1996.76 121.891 1996.69 121.922 1996.61 121.942L1996.6 121.733Z" fill="currentColor"/>
    <path d="M1993.78 162.976L1995.4 163.384L1995.15 164.363L1994.98 164.319L1995.18 163.537L1994.63 163.399L1994.45 164.131L1994.27 164.087L1994.46 163.355L1993.9 163.216L1993.7 164.012L1993.53 163.968L1993.78 162.976ZM1995.47 163.828L1995.78 164.114L1995.73 164.332L1995.42 163.993L1995.47 163.828Z" fill="currentColor"/>
    <path d="M1981.9 201.235L1982.05 201.326L1981.41 202.406L1981.26 202.315L1981.53 201.862L1980.24 201.104L1980.34 200.93L1981.63 201.688L1981.9 201.235Z" fill="currentColor"/>
    <path d="M1959.25 230.795L1959.41 230.649L1960.11 232.293L1959.96 232.437L1958.36 231.64L1958.51 231.494L1959.85 232.176L1959.86 232.167L1959.25 230.795ZM1959.64 231.326L1959.02 231.916L1958.89 231.785L1959.52 231.195L1959.64 231.326Z" fill="currentColor"/>
    <path d="M1926.64 256.147L1927.39 257.641L1927.21 257.732L1926.54 256.398L1925.84 256.747L1925.76 256.586L1926.64 256.147Z" fill="currentColor"/>
    <path d="M1891.57 270.074L1891.87 271.719L1890.88 271.902L1890.84 271.725L1891.64 271.579L1891.54 271.023L1890.79 271.16L1890.76 270.983L1891.5 270.847L1891.4 270.288L1890.59 270.436L1890.56 270.259L1891.57 270.074Z" fill="currentColor"/>
    <path d="M1849.33 163.355C1849.08 163.286 1848.87 163.137 1848.72 162.932C1848.57 162.727 1848.49 162.477 1848.5 162.224C1848.56 161.743 1848.74 161.284 1849.02 160.886C1849.87 159.785 1850.62 158.615 1851.28 157.389C1851.56 156.738 1851.7 156.038 1851.7 155.331C1851.7 154.624 1851.56 153.924 1851.28 153.274C1850.74 152.386 1849.95 151.672 1849.02 151.217C1846.82 150.006 1844.31 149.459 1841.81 149.642C1839.31 149.824 1836.91 150.729 1834.91 152.245C1832.75 153.994 1831.2 156.36 1829.04 158.212C1826.88 160.063 1826.05 160.166 1824.71 161.298C1822.39 163.654 1820.51 166.406 1819.15 169.424C1817.81 171.801 1816.74 174.32 1815.96 176.934C1815.62 178.702 1815.38 180.488 1815.24 182.283C1814.72 187.246 1813.82 192.163 1812.56 196.993C1818.31 194.645 1824.23 192.754 1830.27 191.335C1832.32 191.006 1834.32 190.454 1836.25 189.689C1837.9 188.816 1839.48 187.819 1840.98 186.706C1842.54 185.684 1843.9 184.396 1845 182.9C1846.34 180.946 1846.75 178.374 1848.71 177.037C1850.66 175.699 1851.69 176.008 1853.03 175.185C1854.37 174.362 1855.71 172.202 1857.05 170.762C1858.39 169.321 1861.68 166.955 1862.1 164.178C1862.23 163.887 1862.29 163.571 1862.29 163.252C1862.29 162.933 1862.23 162.618 1862.1 162.326C1861.86 162.009 1861.54 161.761 1861.17 161.606C1859.15 160.789 1856.9 160.789 1854.89 161.606C1852.96 162.532 1850.85 163.024 1848.71 163.046" stroke="currentColor" stroke-width="0.15" stroke-miterlimit="10"/>
    <path d="M1812.46 196.89C1812.69 195.692 1813.26 194.585 1814.11 193.701L1816.99 191.438L1820.8 189.072C1824.68 186.397 1828.78 184.057 1833.06 182.077L1836.04 180.534C1837.33 179.653 1838.54 178.655 1839.65 177.551C1840.93 176.519 1842.01 175.265 1842.84 173.848C1842.96 173.686 1843.03 173.487 1843.03 173.282C1843.03 173.077 1842.96 172.878 1842.84 172.716C1842.35 172.792 1841.91 173.049 1841.6 173.436L1831.3 183.723" stroke="currentColor" stroke-width="0.15" stroke-miterlimit="10"/>
    <path d="M1842.12 172.407C1841.71 171.207 1841.71 169.905 1842.12 168.704C1842.74 166.958 1843.65 165.325 1844.79 163.869C1845.72 162.326 1846.44 160.68 1847.27 159.137C1848.09 157.822 1848.81 156.447 1849.43 155.023C1849.67 154.299 1849.74 153.526 1849.61 152.772C1849.49 152.018 1849.18 151.307 1848.71 150.702" stroke="currentColor" stroke-width="0.15" stroke-miterlimit="10"/>
    <path d="M1836.56 151.217C1836.76 151.276 1836.95 151.381 1837.11 151.523C1837.27 151.666 1837.4 151.842 1837.48 152.039C1839.31 155.151 1840.2 158.722 1840.06 162.326C1840.01 163.286 1840.01 164.247 1840.06 165.207C1840.17 166.219 1840.56 167.18 1841.19 167.984C1841.19 167.984 1841.19 167.984 1841.71 167.984" stroke="currentColor" stroke-width="0.15" stroke-miterlimit="10"/>
    <path d="M1829.14 158.829C1829.56 159.08 1829.94 159.392 1830.27 159.755C1831.77 161.042 1833.12 162.491 1834.29 164.075C1835.42 165.618 1836.14 167.367 1837.28 169.013C1838.21 170.703 1839.7 172.014 1841.5 172.716" stroke="currentColor" stroke-width="0.15" stroke-miterlimit="10"/>
    <path d="M1824.2 162.429C1825.06 163.702 1826.1 164.845 1827.29 165.824C1828.98 167.495 1830.84 168.978 1832.85 170.247C1834.13 170.953 1835.47 171.538 1836.86 171.996C1838.41 172.784 1840.08 173.273 1841.81 173.436" stroke="currentColor" stroke-width="0.15" stroke-miterlimit="10"/>
    <path d="M1819.87 168.807C1821.23 170.069 1822.8 171.08 1824.51 171.79L1827.91 172.51C1829 172.744 1830.07 173.089 1831.1 173.539C1833.79 174.485 1836.59 175.073 1839.44 175.288" stroke="currentColor" stroke-width="0.15" stroke-miterlimit="10"/>
    <path d="M1816.27 176.522C1819.02 176.778 1821.75 177.295 1824.4 178.065C1827.79 178.799 1831.24 179.212 1834.7 179.3C1835.14 179.457 1835.61 179.457 1836.04 179.3" stroke="currentColor" stroke-width="0.15" stroke-miterlimit="10"/>
    <path d="M1815.14 185.678C1816.97 186.089 1818.87 186.089 1820.7 185.678C1822.04 185.163 1823.17 184.135 1824.51 183.723C1825.4 183.617 1826.3 183.617 1827.18 183.723H1829.24" stroke="currentColor" stroke-width="0.15" stroke-miterlimit="10"/>
    <path d="M1819.05 194.524C1819.95 193.61 1820.71 192.571 1821.32 191.438C1821.58 190.807 1821.79 190.153 1821.93 189.484" stroke="currentColor" stroke-width="0.15" stroke-miterlimit="10"/>
    <path d="M1813.9 191.747C1815.55 191.747 1816.99 190.307 1818.53 190.101C1818.87 190.204 1819.23 190.204 1819.56 190.101" stroke="currentColor" stroke-width="0.15" stroke-miterlimit="10"/>
    <path d="M1815.03 195.45C1815.79 194.435 1816.22 193.216 1816.27 191.952" stroke="currentColor" stroke-width="0.15" stroke-miterlimit="10"/>
    <path d="M1825.33 192.57C1826.64 189.296 1828.34 186.189 1830.38 183.312" stroke="currentColor" stroke-width="0.15" stroke-miterlimit="10"/>
    <path d="M1829.86 191.541C1830.7 190.406 1831.3 189.11 1831.61 187.735C1831.61 186.603 1831.61 185.472 1832.33 184.34C1832.98 182.861 1833.93 181.531 1835.11 180.431" stroke="currentColor" stroke-width="0.15" stroke-miterlimit="10"/>
    <path d="M1835.22 189.792C1835.76 189.041 1836.24 188.251 1836.66 187.426C1836.72 187.051 1836.72 186.67 1836.66 186.295C1836.76 185.613 1836.76 184.919 1836.66 184.237C1836.5 183.413 1836.53 182.566 1836.72 181.751C1836.92 180.935 1837.28 180.17 1837.79 179.505" stroke="currentColor" stroke-width="0.15" stroke-miterlimit="10"/>
    <path d="M1842.73 185.163C1843.03 183.874 1842.85 182.521 1842.22 181.357L1841.6 180.534C1841.13 179.167 1841.13 177.683 1841.6 176.316" stroke="currentColor" stroke-width="0.15" stroke-miterlimit="10"/>
    <path d="M1843.35 175.596C1843.95 176.19 1844.65 176.677 1845.41 177.037C1845.64 177.049 1845.86 177.108 1846.06 177.209C1846.26 177.311 1846.44 177.453 1846.59 177.626C1846.73 177.8 1846.84 178.002 1846.9 178.219C1846.97 178.436 1846.99 178.664 1846.96 178.888" stroke="currentColor" stroke-width="0.15" stroke-miterlimit="10"/>
    <path d="M1843.87 174.259C1845.07 174.466 1846.31 174.248 1847.37 173.642C1848.78 172.943 1850.27 172.391 1851.8 171.996C1853.27 171.486 1854.86 171.486 1856.33 171.996" stroke="currentColor" stroke-width="0.15" stroke-miterlimit="10"/>
    <path d="M1844.49 172.922C1846.2 172.503 1847.75 171.569 1848.91 170.247C1850.97 168.087 1851.9 164.898 1854.27 163.046C1854.89 162.48 1855.63 162.042 1856.42 161.76C1857.22 161.477 1858.06 161.355 1858.9 161.401" stroke="currentColor" stroke-width="0.15" stroke-miterlimit="10"/>
    <path d="M1852.21 166.132C1854.58 164.29 1857.57 163.441 1860.55 163.767C1860.83 163.742 1861.12 163.797 1861.37 163.924C1861.63 164.051 1861.84 164.246 1861.99 164.487" stroke="currentColor" stroke-width="0.15" stroke-miterlimit="10"/>
    <path d="M1855.09 164.59C1856.09 164.671 1857.06 164.915 1857.98 165.31C1858.42 165.474 1858.83 165.734 1859.17 166.072C1859.51 166.409 1859.77 166.816 1859.93 167.264" stroke="currentColor" stroke-width="0.15" stroke-miterlimit="10"/>
    <path d="M1851.9 166.853C1852.92 166.698 1853.97 166.698 1854.99 166.853C1856.08 167.232 1857.02 167.954 1857.67 168.91" stroke="currentColor" stroke-width="0.15" stroke-miterlimit="10"/>
    <path d="M1844.59 164.589C1845.84 164.512 1847.02 163.961 1847.88 163.046" stroke="currentColor" stroke-width="0.15" stroke-miterlimit="10"/>
    <path d="M1848.91 163.561C1848.39 166.275 1847.15 168.799 1845.31 170.864" stroke="currentColor" stroke-width="0.15" stroke-miterlimit="10"/>
    <path d="M1847.58 158.52C1848.96 158.29 1850.23 157.602 1851.18 156.566" stroke="currentColor" stroke-width="0.15" stroke-miterlimit="10"/>
    <path d="M1839.03 154.303C1840.03 154.738 1840.94 155.367 1841.71 156.154C1842.61 156.989 1843.37 157.961 1843.97 159.035C1844.53 160.147 1844.74 161.4 1844.59 162.635" stroke="currentColor" stroke-width="0.15" stroke-miterlimit="10"/>
    <path d="M1840.47 162.429L1842.22 163.869C1842.39 163.953 1842.53 164.086 1842.62 164.251C1842.72 164.417 1842.75 164.607 1842.74 164.795" stroke="currentColor" stroke-width="0.15" stroke-miterlimit="10"/>
    <path d="M1848.3 155.64C1848.46 154.397 1848.13 153.14 1847.37 152.142C1847.06 151.492 1846.56 150.953 1845.93 150.599H1844.79H1841.4C1840.86 150.402 1840.28 150.402 1839.75 150.599C1839.58 150.563 1839.4 150.563 1839.23 150.599C1838.93 151.088 1838.81 151.671 1838.91 152.24C1839 152.808 1839.3 153.322 1839.75 153.685" stroke="currentColor" stroke-width="0.15" stroke-miterlimit="10"/>
    <path d="M1847.37 179.094C1849.15 182.744 1850.26 186.679 1850.66 190.718C1851.39 194.271 1851.59 197.908 1851.28 201.519" stroke="currentColor" stroke-width="0.15" stroke-miterlimit="10"/>
    <path d="M1848.5 177.86C1850.96 184.705 1852.35 191.887 1852.62 199.153C1852.62 200.388 1852.62 201.519 1852.62 202.651" stroke="currentColor" stroke-width="0.15" stroke-miterlimit="10"/>
    <path d="M1834.29 85.895C1834.5 86.2407 1834.64 86.6273 1834.69 87.0294C1834.74 87.4316 1834.71 87.8402 1834.59 88.2286C1834.48 88.6171 1834.28 88.9765 1834.01 89.2834C1833.75 89.5904 1833.42 89.8379 1833.05 90.0098C1832.3 90.3034 1831.49 90.3915 1830.69 90.265C1829.89 90.1384 1829.15 89.8017 1828.52 89.2897C1827.25 88.2551 1826.17 87.0009 1825.33 85.5864C1822.58 81.9336 1820.59 77.773 1819.46 73.3451C1819.46 72.0078 1818.95 70.3619 1817.61 69.9504C1816.68 73.3451 1815.75 76.8426 1815.03 80.2373C1814.42 82.4932 1814.42 84.8735 1815.03 87.1294C1815.42 88.1672 1816.01 89.1133 1816.78 89.9069C1821.01 94.8446 1827.8 96.9019 1832.75 101.222C1833.06 101.434 1833.34 101.706 1833.55 102.024C1833.76 102.342 1833.91 102.699 1833.98 103.074C1833.98 104.206 1833.05 105.234 1831.82 105.44C1830.62 105.435 1829.45 105.116 1828.42 104.514C1822.76 101.437 1818.11 96.7931 1815.03 91.1413C1814.01 88.7172 1812.62 86.4628 1810.91 84.4549C1810.25 89.2256 1809.94 94.0396 1809.99 98.8564C1809.94 100.728 1810.15 102.596 1810.6 104.411C1811.59 106.683 1813.07 108.705 1814.94 110.326C1816.81 111.946 1819.03 113.124 1821.42 113.772C1826.05 115.315 1831.1 115.727 1835.73 117.27C1836.11 117.413 1836.46 117.622 1836.76 117.887C1836.76 117.887 1836.76 119.327 1836.76 119.842C1836.09 120.168 1835.35 120.344 1834.6 120.356C1826.47 120.624 1818.52 117.917 1812.25 112.744C1811.63 112.229 1810.71 111.715 1810.09 112.744C1809.47 113.772 1810.09 113.67 1810.09 114.184C1810.86 117.807 1812.22 121.28 1814.11 124.471C1816.03 127.551 1819.04 129.792 1822.55 130.746C1824.94 131.156 1827.37 131.156 1829.76 130.746L1838.72 129.82C1838.18 130.892 1837.37 131.811 1836.38 132.493C1835.39 133.176 1834.25 133.601 1833.05 133.729C1827.94 135.434 1822.35 135.064 1817.5 132.7C1821.69 138.365 1827.25 142.863 1833.67 145.764C1835.05 146.529 1836.5 147.15 1838 147.616C1841.16 148.223 1844.44 147.714 1847.27 146.176C1848.78 145.542 1850.12 144.554 1851.18 143.296C1854.58 139.078 1852.21 133.009 1853.44 127.454C1853.44 127.454 1853.44 126.631 1854.06 126.528C1854.3 126.512 1854.54 126.573 1854.75 126.702C1854.95 126.832 1855.11 127.023 1855.2 127.248L1859.62 133.523C1859.99 134.237 1860.5 134.869 1861.12 135.382C1861.74 135.895 1862.46 136.277 1863.23 136.506C1864.34 136.627 1865.47 136.374 1866.42 135.786L1872.7 133.112C1873.97 132.666 1875.16 132.004 1876.2 131.157C1878.13 129.276 1879.4 126.822 1879.81 124.162C1880.99 120.419 1881.31 116.455 1880.74 112.571C1880.17 108.686 1878.73 104.981 1876.51 101.737C1876.19 104.464 1875.23 107.077 1873.71 109.365C1872.19 111.652 1870.15 113.55 1867.76 114.904C1866.83 115.521 1865.29 115.83 1864.77 114.904C1869.55 111.505 1872.81 106.381 1873.87 100.62C1874.92 94.8595 1873.69 88.9136 1870.44 84.0434C1869.61 82.809 1867.66 81.4717 1866.63 82.7061C1866.44 82.8915 1866.29 83.1175 1866.2 83.367C1866.11 83.6165 1866.08 83.8829 1866.11 84.1463C1865.49 88.3639 1866.11 92.6843 1864.98 96.7991C1864.75 98.9326 1864.02 100.981 1862.84 102.771C1861.65 104.562 1860.06 106.042 1858.18 107.086C1857.85 107.189 1857.49 107.189 1857.15 107.086C1856.43 107.086 1857.15 105.749 1857.15 105.029C1860.34 99.347 1862.5 93.1487 1863.54 86.718C1864.02 83.4927 1863.79 80.2002 1862.87 77.0722C1861.94 73.9443 1860.34 71.0569 1858.18 68.6131C1857.79 68.108 1857.26 67.7177 1856.66 67.4826C1856.07 67.2475 1855.42 67.1761 1854.78 67.2758C1856.43 73.4776 1857.05 79.9046 1856.64 86.3065C1856.64 90.3184 1855.09 95.1532 1851.28 96.5933C1851.12 96.6673 1850.95 96.7056 1850.77 96.7056C1850.59 96.7056 1850.41 96.6673 1850.25 96.5933C1850.05 96.4396 1849.88 96.2366 1849.77 96.0031C1849.67 95.7695 1849.62 95.5127 1849.63 95.2561C1849.64 91.4997 1850.16 87.7617 1851.18 84.1463C1852.24 80.5444 1852.59 76.7714 1852.21 73.0365C1852.01 71.1607 1851.32 69.369 1850.22 67.8364C1849.12 66.3039 1847.64 65.0828 1845.93 64.2926C1842.73 63.0582 1839.03 64.2927 1835.63 62.441C1832.23 60.5894 1832.13 59.9722 1830.27 60.6923C1829.59 60.9835 1828.98 61.4435 1828.52 62.0295L1825.13 65.6299C1823.96 66.6642 1823.13 68.0269 1822.76 69.5389C1822.78 70.4418 1823 71.3292 1823.39 72.1441C1823.78 72.959 1824.34 73.6834 1825.02 74.2709C1828.52 77.8713 1833.36 80.7516 1834.6 85.5864V83.7348" stroke="currentColor" stroke-width="0.15" stroke-miterlimit="10"/>
    <path d="M1853.65 126.425L1846.13 108.629C1839.37 94.4116 1834.96 79.1969 1833.05 63.5728C1833.82 68.915 1835.17 74.158 1837.07 79.2088C1839.83 88.4337 1843.28 97.4421 1847.37 106.16C1848.87 108.75 1850.21 111.43 1851.39 114.184C1852.77 118.936 1854.42 123.606 1856.33 128.174" stroke="currentColor" stroke-width="0.15" stroke-miterlimit="10"/>
    <path d="M1854.17 127.763C1852.22 129.353 1850.69 131.403 1849.74 133.729L1846.24 140.21C1846.08 140.605 1845.83 140.958 1845.52 141.238C1845.01 141.563 1844.45 141.806 1843.87 141.959C1843.58 142.054 1843.33 142.254 1843.18 142.52C1843.03 142.786 1842.98 143.099 1843.04 143.399" stroke="currentColor" stroke-width="0.15" stroke-miterlimit="10"/>
    <path d="M1827.49 138.152C1828.67 138.599 1829.95 138.711 1831.19 138.474C1832.42 138.238 1833.57 137.664 1834.5 136.815C1836.45 135.272 1837.9 133.215 1839.85 131.569C1842.34 129.676 1845.23 128.374 1848.3 127.763C1849.3 127.701 1850.28 127.441 1851.18 127C1852.08 126.559 1852.89 125.944 1853.55 125.191" stroke="currentColor" stroke-width="0.15" stroke-miterlimit="10"/>
    <path d="M1855.71 127.248C1856.82 129.063 1858.21 130.694 1859.83 132.083C1860.46 132.959 1861.27 133.694 1862.2 134.243C1862.45 134.363 1862.72 134.432 1863 134.445C1863.27 134.458 1863.55 134.415 1863.81 134.319C1864.07 134.223 1864.3 134.076 1864.51 133.886C1864.71 133.696 1864.87 133.468 1864.98 133.215" stroke="currentColor" stroke-width="0.15" stroke-miterlimit="10"/>
    <path d="M1855.5 123.442C1857.1 121.691 1859.12 120.38 1861.37 119.636C1864.46 118.71 1867.86 118.916 1870.95 117.887C1873.45 116.98 1875.57 115.259 1876.97 113.001C1878.37 110.743 1878.97 108.08 1878.68 105.44" stroke="currentColor" stroke-width="0.15" stroke-miterlimit="10"/>
    <path d="M1853.65 119.225C1857.39 117.989 1860.54 115.426 1862.51 112.024C1864.21 109.303 1865.76 106.487 1867.14 103.589C1869.3 99.9904 1870.37 95.8473 1870.23 91.6558" stroke="currentColor" stroke-width="0.15" stroke-miterlimit="10"/>
    <path d="M1852.83 116.653C1857.93 114.284 1862.15 110.358 1864.88 105.44" stroke="currentColor" stroke-width="0.15" stroke-miterlimit="10"/>
    <path d="M1848.71 107.189C1853.3 104.168 1856.66 99.6075 1858.18 94.3304C1859.75 89.1243 1860.54 83.7185 1860.55 78.283C1860.75 77.1547 1860.72 75.9968 1860.46 74.8817C1860.19 73.7666 1859.7 72.7182 1859.01 71.8022" stroke="currentColor" stroke-width="0.15" stroke-miterlimit="10"/>
    <path d="M1844.28 98.7537C1845.35 97.5263 1846.22 96.1375 1846.85 94.6389" stroke="currentColor" stroke-width="0.15" stroke-miterlimit="10"/>
    <path d="M1841.71 93.4046C1843.89 89.7059 1845.46 85.6751 1846.34 81.4718C1846.79 79.4252 1846.53 77.2881 1845.62 75.4026" stroke="currentColor" stroke-width="0.15" stroke-miterlimit="10"/>
    <path d="M1839.65 90.4214C1839.96 88.8368 1840.59 87.332 1841.5 85.998" stroke="currentColor" stroke-width="0.15" stroke-miterlimit="10"/>
    <path d="M1838.72 87.2325C1839.23 85.111 1840.1 83.0928 1841.29 81.2661" stroke="currentColor" stroke-width="0.15" stroke-miterlimit="10"/>
    <path d="M1828.63 73.1394C1829.34 74.6816 1830.58 75.9206 1832.13 76.6369C1833.65 77.3194 1835.01 78.2988 1836.14 79.5172" stroke="currentColor" stroke-width="0.15" stroke-miterlimit="10"/>
    <path d="M1833.05 94.0217L1838.41 96.0791C1839.35 96.3854 1840.36 96.3854 1841.29 96.0791" stroke="currentColor" stroke-width="0.15" stroke-miterlimit="10"/>
    <path d="M1823.99 88.8784C1826.56 91.7919 1829.5 94.3517 1832.75 96.4907C1835.17 98.3358 1838.14 99.3139 1841.19 99.2681" stroke="currentColor" stroke-width="0.15" stroke-miterlimit="10"/>
    <path d="M1844.49 107.6H1839.44" stroke="currentColor" stroke-width="0.15" stroke-miterlimit="10"/>
    <path d="M1817.5 98.2393C1820.6 101.231 1824.06 103.823 1827.8 105.954C1831.45 108.114 1835.61 109.251 1839.85 109.246" stroke="currentColor" stroke-width="0.15" stroke-miterlimit="10"/>
    <path d="M1835.53 112.538C1838.76 113.991 1842.37 114.353 1845.82 113.567C1845.82 113.567 1846.55 113.567 1846.34 113.567" stroke="currentColor" stroke-width="0.15" stroke-miterlimit="10"/>
    <path d="M1817.61 122.105L1822.76 124.162C1824.44 124.911 1826.2 125.463 1828.01 125.808C1831.91 125.999 1835.8 125.368 1839.44 123.956C1843.1 122.606 1847.1 122.426 1850.87 123.442" stroke="currentColor" stroke-width="0.15" stroke-miterlimit="10"/>
    <path d="M1845.93 75.8141C1845.82 76.4628 1845.54 77.0688 1845.1 77.5629C1844.85 77.7548 1844.54 77.8587 1844.23 77.8587C1843.91 77.8587 1843.6 77.7548 1843.35 77.5629C1843.23 77.3071 1843.16 77.0255 1843.16 76.74C1843.16 76.4544 1843.23 76.1728 1843.35 75.917C1843.35 74.6826 1843.35 73.551 1843.35 72.3166C1843.29 71.9417 1843.29 71.56 1843.35 71.1851C1843.51 71.0404 1843.71 70.9597 1843.92 70.9597C1844.13 70.9597 1844.33 71.0404 1844.49 71.1851C1844.92 72.0512 1845.16 72.9969 1845.21 73.9625C1845.27 74.4338 1845.24 74.9128 1845.11 75.3718C1844.99 75.8309 1844.78 76.2609 1844.49 76.6371" stroke="currentColor" stroke-width="0.15" stroke-miterlimit="10"/>
    <path d="M1818.84 86.5123C1818.84 85.998 1817.92 86.5123 1817.71 86.5123C1817.69 86.7746 1817.73 87.0373 1817.82 87.2848C1817.91 87.5322 1818.05 87.7593 1818.23 87.9525C1819.05 88.6725 1820.08 89.084 1820.8 89.7012C1821.52 90.3184 1822.55 92.1701 1823.79 92.7873C1825.02 93.4045 1825.54 92.7873 1825.64 92.1701C1825.62 91.9889 1825.57 91.8133 1825.48 91.6541C1825.39 91.4949 1825.27 91.3554 1825.13 91.2443C1823.57 89.2727 1821.73 87.5398 1819.67 86.1008C1819.67 86.1008 1818.43 86.1008 1818.33 86.1008" stroke="currentColor" stroke-width="0.15" stroke-miterlimit="10"/>
    <path d="M1842.43 104.514C1842.43 105.131 1842.43 105.852 1841.29 105.954C1840.59 106.005 1839.89 105.785 1839.34 105.337C1838.14 104.837 1837.13 103.973 1836.45 102.868C1836.35 102.604 1836.35 102.31 1836.45 102.045C1836.62 102.002 1836.8 102.002 1836.97 102.045C1837.52 101.795 1838.11 101.666 1838.72 101.666C1839.32 101.666 1839.92 101.795 1840.47 102.045C1840.98 102.364 1841.41 102.784 1841.75 103.28C1842.09 103.776 1842.32 104.336 1842.43 104.926" stroke="currentColor" stroke-width="0.15" stroke-miterlimit="10"/>
    <path d="M1824.61 108.732V109.863C1823.34 109.887 1822.08 109.642 1820.91 109.146C1819.73 108.65 1818.68 107.913 1817.81 106.983L1815.55 105.131C1814.93 104.617 1814.21 104 1814.31 103.177C1814.46 102.835 1814.7 102.544 1815.01 102.342C1815.33 102.14 1815.69 102.037 1816.06 102.045C1817.41 102.115 1818.69 102.662 1819.67 103.588L1821.83 105.234C1823.44 106.161 1824.68 107.615 1825.33 109.349" stroke="currentColor" stroke-width="0.15" stroke-miterlimit="10"/>
    <path d="M1854.89 111.509C1854.64 112.166 1854.21 112.738 1853.65 113.155H1853.14C1853.14 113.155 1852.31 112.538 1852.42 112.024C1852.46 111.69 1852.6 111.377 1852.82 111.122C1853.04 110.866 1853.33 110.679 1853.65 110.584C1853.98 110.492 1854.32 110.491 1854.65 110.582C1854.98 110.672 1855.27 110.851 1855.5 111.098" stroke="currentColor" stroke-width="0.15" stroke-miterlimit="10"/>
    <path d="M1864.98 122.619L1862.1 123.545C1862.1 123.545 1860.96 123.545 1860.96 124.471C1861 124.729 1861.12 124.968 1861.31 125.153C1861.49 125.338 1861.73 125.459 1861.99 125.5C1864.82 125.683 1867.66 125.298 1870.33 124.368C1871.67 124.368 1873.11 124.368 1874.45 124.368C1875.12 124.225 1875.73 123.913 1876.24 123.463C1876.74 123.012 1877.12 122.438 1877.34 121.796C1877.41 121.653 1877.45 121.494 1877.45 121.333C1877.45 121.173 1877.41 121.014 1877.34 120.871C1877.17 120.621 1876.94 120.427 1876.66 120.317C1876.39 120.206 1876.08 120.184 1875.79 120.253C1873.73 120.523 1871.76 121.262 1870.03 122.414C1869.13 122.918 1868.12 123.184 1867.09 123.184C1866.06 123.184 1865.05 122.918 1864.16 122.414" stroke="currentColor" stroke-width="0.15" stroke-miterlimit="10"/>
    <path d="M1836.35 142.781C1835.63 142.781 1834.6 142.781 1834.39 143.399C1834.37 143.602 1834.4 143.808 1834.49 143.991C1834.59 144.175 1834.73 144.326 1834.91 144.427C1835.28 144.684 1835.7 144.859 1836.14 144.942H1837.28C1837.52 145.046 1837.78 145.1 1838.05 145.1C1838.31 145.1 1838.58 145.046 1838.82 144.942C1839.54 144.324 1838.82 143.193 1838.31 142.678C1837.45 142.387 1836.62 142.008 1835.84 141.547" stroke="currentColor" stroke-width="0.15" stroke-miterlimit="10"/>
    <path d="M1853.03 129.614C1854.78 134.468 1856.12 139.456 1857.05 144.53C1858.34 152.051 1859.16 159.643 1859.52 167.264L1861.79 199.873" stroke="currentColor" stroke-width="0.15" stroke-miterlimit="10"/>
    <path d="M1855.5 127.865C1859.96 140.197 1862.49 153.137 1863.02 166.235C1863.74 179.3 1863.02 192.467 1863.74 205.531" stroke="currentColor" stroke-width="0.15" stroke-miterlimit="10"/>
    <path d="M1915.95 144.016C1912.03 145.444 1908.3 147.344 1904.83 149.674C1898.55 153.104 1893.02 157.756 1888.56 163.355C1886.86 165.881 1885.41 168.569 1884.24 171.379L1876.72 187.426C1873.44 193.265 1871.38 199.702 1870.64 206.354" stroke="currentColor" stroke-width="0.15" stroke-miterlimit="10"/>
    <path d="M1879.4 181.769C1881.76 177.551 1880.43 177.14 1881.04 172.202C1881.66 167.264 1881.56 169.116 1884.03 155.434C1884.03 152.76 1885.88 145.147 1886.6 142.782C1888.47 136.298 1889.92 129.7 1890.93 123.031C1882.73 135.676 1877.07 149.79 1874.25 164.59C1872.71 170.944 1872.71 177.574 1874.25 183.929C1874.25 184.855 1875.48 186.089 1876.31 185.472" stroke="currentColor" stroke-width="0.15" stroke-miterlimit="10"/>
    <path d="M1881.04 179.197C1882.89 177.667 1885.08 176.608 1887.43 176.111C1893.14 175.403 1898.92 176.674 1903.8 179.711C1912.53 184.167 1920.06 190.66 1925.74 198.639C1919.4 191.593 1911.24 186.431 1902.16 183.723C1898.45 182.271 1894.57 181.303 1890.62 180.843C1886.65 180.355 1882.61 180.997 1878.98 182.694" stroke="currentColor" stroke-width="0.15" stroke-miterlimit="10"/>
    <path d="M1928.62 188.249C1924.46 184.356 1919.91 180.908 1915.03 177.962C1910.1 175.063 1904.56 173.371 1898.86 173.025C1897.08 172.922 1895.29 172.922 1893.5 173.025C1891.46 173.117 1889.44 173.533 1887.53 174.259C1885.09 175.418 1882.86 176.984 1880.94 178.888" stroke="currentColor" stroke-width="0.15" stroke-miterlimit="10"/>
    <path d="M1928.11 188.764C1921.82 185.369 1915.54 181.974 1909.05 178.477C1904.28 175.705 1898.92 174.085 1893.4 173.745C1890.54 173.829 1887.7 174.279 1884.96 175.082" stroke="currentColor" stroke-width="0.15" stroke-miterlimit="10"/>
    <path d="M1932.23 168.396C1929.15 167.658 1926.01 167.176 1922.85 166.956C1919.89 166.956 1916.93 167.163 1914 167.573C1904.07 168.242 1894.41 171.049 1885.68 175.802C1885.15 176.179 1884.56 176.457 1883.93 176.625" stroke="currentColor" stroke-width="0.15" stroke-miterlimit="10"/>
    <path d="M1932.33 167.984C1929.38 166.21 1926.07 165.12 1922.65 164.795C1915.78 163.916 1908.82 164.194 1902.05 165.618C1898.44 166.278 1894.96 167.529 1891.75 169.321C1888.53 171.27 1885.82 173.948 1883.82 177.139" stroke="currentColor" stroke-width="0.15" stroke-miterlimit="10"/>
    <path d="M1930.37 155.023C1919.02 156.34 1907.92 159.285 1897.42 163.767C1894.77 165.266 1892.26 166.986 1889.9 168.91C1886.28 171.373 1883.37 174.743 1881.46 178.682" stroke="currentColor" stroke-width="0.15" stroke-miterlimit="10"/>
    <path d="M1930.89 155.125H1929.44C1920.39 154.015 1911.21 154.786 1902.46 157.389C1898.14 158.702 1894.15 160.95 1890.79 163.971C1887.42 166.993 1884.77 170.716 1883 174.876" stroke="currentColor" stroke-width="0.15" stroke-miterlimit="10"/>
    <path d="M1916.16 144.016C1911.73 147.205 1904.42 151.628 1899.79 154.303C1891.8 160.138 1885.45 167.933 1881.35 176.934" stroke="currentColor" stroke-width="0.15" stroke-miterlimit="10"/>
    <path d="M1914.51 203.988C1912.92 201.99 1911.17 200.131 1909.26 198.433C1907.4 196.877 1905.4 195.499 1903.29 194.318C1896.64 189.79 1889.09 186.771 1881.15 185.472C1880.64 185.564 1880.11 185.564 1879.6 185.472" stroke="currentColor" stroke-width="0.15" stroke-miterlimit="10"/>
    <path d="M1914.82 203.782C1913.83 201.158 1912.25 198.798 1910.19 196.89C1906.29 192.702 1901.69 189.222 1896.59 186.603C1893.94 185.236 1891.09 184.299 1888.15 183.826C1885.13 183.411 1882.06 183.728 1879.19 184.752" stroke="currentColor" stroke-width="0.15" stroke-miterlimit="10"/>
</svg>
