<svg width="464" height="169" viewBox="0 0 464 169" fill="none" xmlns="http://www.w3.org/2000/svg">
<path d="M371.909 29.9095L365.182 70.8186H348.682L360.318 1.0004H376.091L374.091 12.864H374.954C377.136 8.95495 380.197 5.84888 384.136 3.54585C388.076 1.24282 392.666 0.0913086 397.909 0.0913086C402.666 0.0913086 406.666 1.12161 409.909 3.18221C413.151 5.21252 415.454 8.19736 416.818 12.1368C418.182 16.0458 418.394 20.7883 417.454 26.364L410 70.8186H393.545L400.5 28.9095C401.288 24.2731 400.697 20.6368 398.727 18.0004C396.788 15.3337 393.666 14.0004 389.363 14.0004C386.485 14.0004 383.833 14.6368 381.409 15.9095C378.985 17.1519 376.939 18.9549 375.273 21.3186C373.636 23.6822 372.515 26.5459 371.909 29.9095Z" fill="black"/>
<path d="M303.363 72.1822C296.363 72.1822 290.576 70.7277 286 67.8186C281.424 64.8792 278.212 60.7277 276.363 55.364C274.545 49.9701 274.242 43.6216 275.454 36.3186C276.636 29.1368 279.045 22.8337 282.682 17.4095C286.318 11.9549 290.863 7.71252 296.318 4.68221C301.803 1.62161 307.863 0.0913086 314.5 0.0913086C318.803 0.0913086 322.757 0.788277 326.363 2.18221C329.969 3.54585 333.015 5.66706 335.5 8.54585C337.985 11.4246 339.697 15.0913 340.636 19.5459C341.576 23.9701 341.53 29.2428 340.5 35.364L339.727 40.4095H282.454L284.227 29.3186H325.682C326.227 26.1671 326.045 23.364 325.136 20.9095C324.227 18.4246 322.712 16.4701 320.591 15.0459C318.469 13.6216 315.818 12.9095 312.636 12.9095C309.394 12.9095 306.363 13.7428 303.545 15.4095C300.757 17.0459 298.409 19.1671 296.5 21.7731C294.591 24.3792 293.379 27.1216 292.863 30.0004L291 40.6368C290.333 45.0004 290.485 48.561 291.454 51.3186C292.424 54.0762 294.121 56.1065 296.545 57.4095C298.969 58.7125 302.03 59.364 305.727 59.364C308.151 59.364 310.394 59.0307 312.454 58.364C314.515 57.6974 316.348 56.6974 317.954 55.364C319.591 54.0004 320.954 52.3337 322.045 50.364L337.091 52.0913C335.424 56.1519 332.985 59.6974 329.773 62.7277C326.56 65.7277 322.712 68.061 318.227 69.7277C313.773 71.364 308.818 72.1822 303.363 72.1822Z" fill="black"/>
<path d="M227.363 72.1822C220.363 72.1822 214.576 70.7277 210 67.8186C205.424 64.8792 202.212 60.7277 200.363 55.364C198.545 49.9701 198.242 43.6216 199.454 36.3186C200.636 29.1368 203.045 22.8337 206.682 17.4095C210.318 11.9549 214.863 7.71252 220.318 4.68221C225.803 1.62161 231.863 0.0913086 238.5 0.0913086C242.803 0.0913086 246.757 0.788277 250.363 2.18221C253.969 3.54585 257.015 5.66706 259.5 8.54585C261.985 11.4246 263.697 15.0913 264.636 19.5459C265.576 23.9701 265.53 29.2428 264.5 35.364L263.727 40.4095H206.454L208.227 29.3186H249.682C250.227 26.1671 250.045 23.364 249.136 20.9095C248.227 18.4246 246.712 16.4701 244.591 15.0459C242.469 13.6216 239.818 12.9095 236.636 12.9095C233.394 12.9095 230.363 13.7428 227.545 15.4095C224.757 17.0459 222.409 19.1671 220.5 21.7731C218.591 24.3792 217.379 27.1216 216.863 30.0004L215 40.6368C214.333 45.0004 214.485 48.561 215.454 51.3186C216.424 54.0762 218.121 56.1065 220.545 57.4095C222.969 58.7125 226.03 59.364 229.727 59.364C232.151 59.364 234.394 59.0307 236.454 58.364C238.515 57.6974 240.348 56.6974 241.954 55.364C243.591 54.0004 244.954 52.3337 246.045 50.364L261.091 52.0913C259.424 56.1519 256.985 59.6974 253.773 62.7277C250.56 65.7277 246.712 68.061 242.227 69.7277C237.773 71.364 232.818 72.1822 227.363 72.1822Z" fill="black"/>
<path d="M148.636 70.8182L160.273 1H176.227L174.273 12.6364H175C176.909 8.60606 179.606 5.5 183.091 3.31818C186.606 1.10606 190.364 0 194.364 0C195.303 0 196.318 0.0454534 197.409 0.13636C198.5 0.196968 199.439 0.303029 200.227 0.454544L197.682 15.5909C196.985 15.3485 195.894 15.1364 194.409 14.9545C192.954 14.7424 191.515 14.6364 190.091 14.6364C187.091 14.6364 184.303 15.2879 181.727 16.5909C179.182 17.8636 177.03 19.6364 175.273 21.9091C173.515 24.1818 172.379 26.803 171.864 29.7727L165.091 70.8182H148.636Z" fill="black"/>
<path d="M94.6363 98.4549C88.6969 98.4549 83.7423 97.6519 79.7726 96.0459C75.8029 94.4701 72.7423 92.3489 70.5908 89.6822C68.4393 87.0155 67.106 84.061 66.5908 80.8186L82.0454 77.2277C82.4999 78.5913 83.2272 79.9398 84.2272 81.2731C85.2575 82.6368 86.7726 83.758 88.7726 84.6368C90.7726 85.5458 93.4393 86.0004 96.7726 86.0004C101.439 86.0004 105.515 84.864 109 82.5913C112.485 80.3186 114.636 76.6216 115.454 71.5004L117.545 58.2731H116.727C115.636 59.9701 114.136 61.7125 112.227 63.5004C110.348 65.2883 107.97 66.7883 105.091 68.0004C102.242 69.2125 98.8181 69.8186 94.8181 69.8186C89.4545 69.8186 84.8029 68.561 80.8635 66.0459C76.9242 63.5004 74.0908 59.7125 72.3635 54.6822C70.6666 49.6216 70.4545 43.2883 71.7272 35.6822C72.9696 28.0155 75.3029 21.5459 78.7272 16.2731C82.1817 10.9701 86.3181 6.95494 91.1363 4.22767C95.9545 1.4701 101.045 0.0913086 106.409 0.0913086C110.5 0.0913086 113.757 0.788277 116.182 2.18221C118.606 3.54585 120.439 5.19737 121.682 7.13676C122.924 9.04585 123.833 10.8489 124.409 12.5459H125.273L127.182 1.0004H143.409L131.682 71.9549C130.712 77.9246 128.485 82.864 125 86.7731C121.515 90.7125 117.136 93.6368 111.864 95.5459C106.621 97.4853 100.879 98.4549 94.6363 98.4549ZM101.364 56.9095C104.848 56.9095 107.97 56.061 110.727 54.364C113.485 52.6671 115.788 50.2277 117.636 47.0459C119.485 43.864 120.773 40.0459 121.5 35.5913C122.227 31.1974 122.197 27.3489 121.409 24.0459C120.651 20.7428 119.182 18.1822 117 16.364C114.818 14.5156 111.97 13.5913 108.454 13.5913C104.788 13.5913 101.576 14.5459 98.8181 16.4549C96.0908 18.364 93.8484 20.9852 92.0908 24.3186C90.3635 27.6216 89.1514 31.3792 88.4545 35.5913C87.7878 39.864 87.7878 43.6065 88.4545 46.8186C89.1514 50.0004 90.5605 52.4852 92.6817 54.2731C94.8332 56.0307 97.7272 56.9095 101.364 56.9095Z" fill="black"/>
<path d="M34.8921 40.3465C33.233 40.3465 31.7899 40.0511 30.5626 39.4602C29.3353 38.8579 28.4319 37.9715 27.8524 36.8011C27.2842 35.6306 27.1421 34.1875 27.4262 32.4715C27.6762 30.9943 28.1535 29.7727 28.858 28.8068C29.574 27.8409 30.449 27.0681 31.483 26.4886C32.5285 25.8977 33.6649 25.4545 34.8921 25.159C36.1308 24.8636 37.3921 24.6477 38.6762 24.5113C40.2444 24.3522 41.5115 24.2045 42.4774 24.0681C43.4546 23.9318 44.1876 23.7272 44.6762 23.4545C45.1649 23.1704 45.4603 22.7386 45.5626 22.159V22.0568C45.7671 20.7727 45.5626 19.7784 44.949 19.0738C44.3353 18.3693 43.3126 18.017 41.8808 18.017C40.3808 18.017 39.1194 18.3465 38.0967 19.0056C37.074 19.6647 36.3296 20.4431 35.8637 21.3409L30.2728 20.5227C30.9774 18.9318 31.9433 17.6022 33.1705 16.534C34.3978 15.4545 35.8126 14.6477 37.4149 14.1136C39.0285 13.5681 40.7501 13.2954 42.5796 13.2954C43.8296 13.2954 45.0512 13.4431 46.2444 13.7386C47.449 14.034 48.5115 14.5227 49.4319 15.2045C50.3637 15.875 51.0455 16.7897 51.4774 17.9488C51.9205 19.1079 51.9944 20.5568 51.699 22.2954L48.7842 39.8181H42.8524L43.466 36.2215H43.2615C42.7728 36.9488 42.1365 37.6306 41.3524 38.267C40.5683 38.892 39.6365 39.3977 38.5569 39.784C37.4774 40.159 36.2558 40.3465 34.8921 40.3465ZM37.2274 35.8125C38.466 35.8125 39.5796 35.5681 40.5683 35.0795C41.5569 34.5795 42.3694 33.9204 43.0058 33.1022C43.6421 32.284 44.0399 31.392 44.199 30.4261L44.7103 27.3409C44.483 27.5 44.1308 27.6477 43.6535 27.784C43.1762 27.9204 42.6421 28.0397 42.0512 28.142C41.4717 28.2443 40.8978 28.3352 40.3296 28.4147C39.7615 28.4943 39.2728 28.5625 38.8637 28.6193C37.9205 28.7443 37.0569 28.9488 36.2728 29.2329C35.5001 29.517 34.858 29.9147 34.3467 30.4261C33.8467 30.9261 33.5342 31.5738 33.4092 32.3693C33.2274 33.4943 33.4944 34.3522 34.2103 34.9431C34.9262 35.5227 35.9319 35.8125 37.2274 35.8125Z" fill="black"/>
<path d="M0.51123 39.8183L6.30668 4.90918H12.6305L7.72146 34.5171H23.0965L22.2101 39.8183H0.51123Z" fill="black"/>
<path d="M457.287 153.25C457.116 154.616 457.031 155.554 457.031 156.066C457.031 158.541 457.586 160.461 458.695 161.826C459.89 163.192 461.511 163.874 463.559 163.874L463.047 166.818C457.074 166.818 452.594 166.05 449.607 164.514C446.706 162.978 445.255 160.504 445.255 157.09C445.255 156.578 445.34 155.725 445.511 154.53L450.247 125.986C450.503 124.706 450.631 123.512 450.631 122.402C450.631 116.514 447.303 113.57 440.647 113.57C434.844 113.57 429.17 118.605 423.623 128.674L417.223 166.818H405.703L417.735 95.2662C412.444 94.8396 409.756 94.6262 409.671 94.6262L410.183 91.6822C411.804 91.6822 415.132 90.7862 420.167 88.9942C425.202 87.1169 428.7 86.1782 430.663 86.1782L425.159 119.458C430.279 112.632 435.911 109.218 442.055 109.218C449.138 109.218 454.258 110.2 457.415 112.162C460.572 114.125 462.151 117.41 462.151 122.018C462.151 122.872 461.98 124.493 461.639 126.882L457.287 153.25Z" fill="black"/>
<path d="M386.306 125.474C386.306 123.512 386.903 122.018 388.098 120.994C389.292 119.97 390.487 119.458 391.682 119.458C391.34 115.192 387.33 113.058 379.65 113.058C373.676 113.058 368.514 115.704 364.162 120.994C359.895 126.2 357.762 132.856 357.762 140.962C357.762 147.106 359.255 152.354 362.242 156.706C365.314 161.058 369.068 163.234 373.506 163.234C381.015 163.234 387.458 160.418 392.834 154.786L395.65 156.322C392.492 160.333 388.78 163.32 384.514 165.282C380.247 167.16 374.828 168.098 368.258 168.098C362.028 168.098 356.61 166.264 352.002 162.594C347.479 158.925 345.218 152.866 345.218 144.418C345.218 134.264 348.29 125.858 354.434 119.202C360.578 112.546 368.77 109.218 379.01 109.218C391.724 109.218 398.082 112.973 398.082 120.482C398.082 123.042 397.442 125.133 396.162 126.754C394.967 128.376 393.346 129.186 391.298 129.186C387.97 129.186 386.306 127.949 386.306 125.474Z" fill="black"/>
<path d="M327.823 153.251C327.652 154.616 327.567 155.555 327.567 156.067C327.567 158.541 328.121 160.461 329.231 161.827C330.425 163.192 332.047 163.875 334.095 163.875L333.583 166.819C323.087 166.819 317.241 164.301 316.047 159.267C310.159 165.155 304.313 168.099 298.511 168.099C291.599 168.099 286.564 166.989 283.407 164.771C280.249 162.552 278.671 159.139 278.671 154.531C278.671 153.165 278.799 151.629 279.055 149.923L284.815 115.747C284.303 114.04 281.743 113.187 277.135 113.187L277.647 110.499H297.231L290.447 150.819C290.191 152.099 290.063 153.336 290.063 154.531C290.063 160.675 293.391 163.747 300.047 163.747C305.849 163.747 311.14 161.059 315.919 155.683L323.471 110.499H334.991L327.823 153.251Z" fill="black"/>
<path d="M217.887 144.29C217.887 151.032 219.253 156.066 221.983 159.394C224.799 162.637 228.682 164.258 233.631 164.258C239.605 164.258 244.426 161.058 248.095 154.658C251.85 148.173 253.727 140.578 253.727 131.874C253.727 119.416 248.309 113.186 237.471 113.186C231.669 113.186 226.933 116.344 223.263 122.658C219.679 128.973 217.887 136.184 217.887 144.29ZM231.327 168.098C222.965 168.098 216.565 165.965 212.127 161.698C207.69 157.432 205.471 151.629 205.471 144.29C205.471 134.05 208.501 125.645 214.559 119.074C220.618 112.504 229.194 109.218 240.287 109.218C248.906 109.218 255.349 111.224 259.615 115.234C263.967 119.245 266.143 124.834 266.143 132.002C266.143 142.413 263.114 151.032 257.055 157.858C250.997 164.685 242.421 168.098 231.327 168.098Z" fill="black"/>
<path d="M149.96 91.9385H214.216L212.168 104.354H209.48C209.736 102.562 209.864 101.112 209.864 100.002C209.864 98.0398 209.309 96.8025 208.2 96.2905H187.208L176.328 161.57C176.84 163.277 179.4 164.13 184.008 164.13L183.496 166.818H155.592L156.104 164.13C160.797 164.13 163.613 163.277 164.552 161.57L175.432 96.2905H154.44C152.648 96.9731 151.368 99.6611 150.6 104.354H147.912L149.96 91.9385Z" fill="black"/>
</svg>
