<svg width="464" height="169" viewBox="0 0 464 169" fill="none" xmlns="http://www.w3.org/2000/svg">
<path d="M371.909 30.0911L365.182 71.0002H348.682L360.318 1.18204H376.091L374.091 13.0457H374.954C377.136 9.13659 380.197 6.03052 384.136 3.72749C388.076 1.42446 392.666 0.272949 397.909 0.272949C402.666 0.272949 406.666 1.30325 409.909 3.36385C413.151 5.39416 415.454 8.379 416.818 12.3184C418.182 16.2275 418.394 20.9699 417.454 26.5457L410 71.0002H393.545L400.5 29.0911C401.288 24.4548 400.697 20.8184 398.727 18.182C396.788 15.5154 393.666 14.182 389.363 14.182C386.485 14.182 383.833 14.8184 381.409 16.0911C378.985 17.3336 376.939 19.1366 375.273 21.5002C373.636 23.8639 372.515 26.7275 371.909 30.0911Z" fill="white"/>
<path d="M303.363 72.3639C296.363 72.3639 290.576 70.9093 286 68.0002C281.424 65.0608 278.212 60.9093 276.363 55.5457C274.545 50.1517 274.242 43.8033 275.454 36.5002C276.636 29.3184 279.045 23.0154 282.682 17.5911C286.318 12.1366 290.863 7.89416 296.318 4.86385C301.803 1.80325 307.863 0.272949 314.5 0.272949C318.803 0.272949 322.757 0.969917 326.363 2.36385C329.969 3.72749 333.015 5.8487 335.5 8.72749C337.985 11.6063 339.697 15.2729 340.636 19.7275C341.576 24.1517 341.53 29.4245 340.5 35.5457L339.727 40.5911H282.454L284.227 29.5002H325.682C326.227 26.3487 326.045 23.5457 325.136 21.0911C324.227 18.6063 322.712 16.6517 320.591 15.2275C318.469 13.8033 315.818 13.0911 312.636 13.0911C309.394 13.0911 306.363 13.9245 303.545 15.5911C300.757 17.2275 298.409 19.3487 296.5 21.9548C294.591 24.5608 293.379 27.3033 292.863 30.182L291 40.8184C290.333 45.182 290.485 48.7426 291.454 51.5002C292.424 54.2578 294.121 56.2881 296.545 57.5911C298.969 58.8942 302.03 59.5457 305.727 59.5457C308.151 59.5457 310.394 59.2123 312.454 58.5457C314.515 57.879 316.348 56.879 317.954 55.5457C319.591 54.182 320.954 52.5154 322.045 50.5457L337.091 52.2729C335.424 56.3336 332.985 59.879 329.773 62.9093C326.56 65.9093 322.712 68.2426 318.227 69.9093C313.773 71.5457 308.818 72.3639 303.363 72.3639Z" fill="white"/>
<path d="M227.363 72.3639C220.363 72.3639 214.576 70.9093 210 68.0002C205.424 65.0608 202.212 60.9093 200.363 55.5457C198.545 50.1517 198.242 43.8033 199.454 36.5002C200.636 29.3184 203.045 23.0154 206.682 17.5911C210.318 12.1366 214.863 7.89416 220.318 4.86385C225.803 1.80325 231.863 0.272949 238.5 0.272949C242.803 0.272949 246.757 0.969917 250.363 2.36385C253.969 3.72749 257.015 5.8487 259.5 8.72749C261.985 11.6063 263.697 15.2729 264.636 19.7275C265.576 24.1517 265.53 29.4245 264.5 35.5457L263.727 40.5911H206.454L208.227 29.5002H249.682C250.227 26.3487 250.045 23.5457 249.136 21.0911C248.227 18.6063 246.712 16.6517 244.591 15.2275C242.469 13.8033 239.818 13.0911 236.636 13.0911C233.394 13.0911 230.363 13.9245 227.545 15.5911C224.757 17.2275 222.409 19.3487 220.5 21.9548C218.591 24.5608 217.379 27.3033 216.863 30.182L215 40.8184C214.333 45.182 214.485 48.7426 215.454 51.5002C216.424 54.2578 218.121 56.2881 220.545 57.5911C222.969 58.8942 226.03 59.5457 229.727 59.5457C232.151 59.5457 234.394 59.2123 236.454 58.5457C238.515 57.879 240.348 56.879 241.954 55.5457C243.591 54.182 244.954 52.5154 246.045 50.5457L261.091 52.2729C259.424 56.3336 256.985 59.879 253.773 62.9093C250.56 65.9093 246.712 68.2426 242.227 69.9093C237.773 71.5457 232.818 72.3639 227.363 72.3639Z" fill="white"/>
<path d="M148.636 70.9998L160.273 1.18164H176.227L174.273 12.818H175C176.909 8.7877 179.606 5.68164 183.091 3.49982C186.606 1.2877 190.364 0.181641 194.364 0.181641C195.303 0.181641 196.318 0.227094 197.409 0.318001C198.5 0.378609 199.439 0.48467 200.227 0.636185L197.682 15.7725C196.985 15.5301 195.894 15.318 194.409 15.1362C192.954 14.9241 191.515 14.818 190.091 14.818C187.091 14.818 184.303 15.4695 181.727 16.7725C179.182 18.0453 177.03 19.818 175.273 22.0907C173.515 24.3635 172.379 26.9847 171.864 29.9544L165.091 70.9998H148.636Z" fill="white"/>
<path d="M94.6363 98.6366C88.6969 98.6366 83.7423 97.8336 79.7726 96.2275C75.8029 94.6517 72.7423 92.5305 70.5908 89.8639C68.4393 87.1972 67.106 84.2426 66.5908 81.0002L82.0454 77.4093C82.4999 78.7729 83.2272 80.1214 84.2272 81.4548C85.2575 82.8184 86.7726 83.9396 88.7726 84.8184C90.7726 85.7275 93.4393 86.182 96.7726 86.182C101.439 86.182 105.515 85.0457 109 82.773C112.485 80.5002 114.636 76.8032 115.454 71.682L117.545 58.4548H116.727C115.636 60.1517 114.136 61.8942 112.227 63.682C110.348 65.4699 107.97 66.9699 105.091 68.182C102.242 69.3942 98.8181 70.0002 94.8181 70.0002C89.4545 70.0002 84.8029 68.7426 80.8635 66.2275C76.9242 63.682 74.0908 59.8942 72.3635 54.8639C70.6666 49.8032 70.4545 43.4699 71.7272 35.8639C72.9696 28.1972 75.3029 21.7275 78.7272 16.4548C82.1817 11.1517 86.3181 7.13658 91.1363 4.40931C95.9545 1.65174 101.045 0.272949 106.409 0.272949C110.5 0.272949 113.757 0.969917 116.182 2.36385C118.606 3.72749 120.439 5.37901 121.682 7.3184C122.924 9.22749 123.833 11.0305 124.409 12.7275H125.273L127.182 1.18204H143.409L131.682 72.1366C130.712 78.1063 128.485 83.0457 125 86.9548C121.515 90.8942 117.136 93.8184 111.864 95.7275C106.621 97.6669 100.879 98.6366 94.6363 98.6366ZM101.364 57.0911C104.848 57.0911 107.97 56.2426 110.727 54.5457C113.485 52.8487 115.788 50.4093 117.636 47.2275C119.485 44.0457 120.773 40.2275 121.5 35.7729C122.227 31.379 122.197 27.5305 121.409 24.2275C120.651 20.9245 119.182 18.3639 117 16.5457C114.818 14.6972 111.97 13.7729 108.454 13.7729C104.788 13.7729 101.576 14.7275 98.8181 16.6366C96.0908 18.5457 93.8484 21.1669 92.0908 24.5002C90.3635 27.8033 89.1514 31.5608 88.4545 35.7729C87.7878 40.0457 87.7878 43.7881 88.4545 47.0002C89.1514 50.182 90.5605 52.6669 92.6817 54.4548C94.8332 56.2123 97.7272 57.0911 101.364 57.0911Z" fill="white"/>
<path d="M34.8921 40.5282C33.233 40.5282 31.7899 40.2327 30.5626 39.6418C29.3353 39.0396 28.4319 38.1532 27.8524 36.9827C27.2842 35.8123 27.1421 34.3691 27.4262 32.6532C27.6762 31.1759 28.1535 29.9543 28.858 28.9884C29.574 28.0225 30.449 27.2498 31.483 26.6702C32.5285 26.0793 33.6649 25.6361 34.8921 25.3407C36.1308 25.0452 37.3921 24.8293 38.6762 24.693C40.2444 24.5339 41.5115 24.3861 42.4774 24.2498C43.4546 24.1134 44.1876 23.9089 44.6762 23.6361C45.1649 23.3521 45.4603 22.9202 45.5626 22.3407V22.2384C45.7671 20.9543 45.5626 19.96 44.949 19.2555C44.3353 18.5509 43.3126 18.1986 41.8808 18.1986C40.3808 18.1986 39.1194 18.5282 38.0967 19.1873C37.074 19.8464 36.3296 20.6248 35.8637 21.5225L30.2728 20.7043C30.9774 19.1134 31.9433 17.7839 33.1705 16.7157C34.3978 15.6361 35.8126 14.8293 37.4149 14.2952C39.0285 13.7498 40.7501 13.4771 42.5796 13.4771C43.8296 13.4771 45.0512 13.6248 46.2444 13.9202C47.449 14.2157 48.5115 14.7043 49.4319 15.3861C50.3637 16.0566 51.0455 16.9714 51.4774 18.1305C51.9205 19.2895 51.9944 20.7384 51.699 22.4771L48.7842 39.9998H42.8524L43.466 36.4032H43.2615C42.7728 37.1305 42.1365 37.8123 41.3524 38.4486C40.5683 39.0736 39.6365 39.5793 38.5569 39.9657C37.4774 40.3407 36.2558 40.5282 34.8921 40.5282ZM37.2274 35.9941C38.466 35.9941 39.5796 35.7498 40.5683 35.2611C41.5569 34.7611 42.3694 34.1021 43.0058 33.2839C43.6421 32.4657 44.0399 31.5736 44.199 30.6077L44.7103 27.5225C44.483 27.6816 44.1308 27.8293 43.6535 27.9657C43.1762 28.1021 42.6421 28.2214 42.0512 28.3236C41.4717 28.4259 40.8978 28.5168 40.3296 28.5964C39.7615 28.6759 39.2728 28.7441 38.8637 28.8009C37.9205 28.9259 37.0569 29.1305 36.2728 29.4146C35.5001 29.6986 34.858 30.0964 34.3467 30.6077C33.8467 31.1077 33.5342 31.7555 33.4092 32.5509C33.2274 33.6759 33.4944 34.5339 34.2103 35.1248C34.9262 35.7043 35.9319 35.9941 37.2274 35.9941Z" fill="white"/>
<path d="M0.51123 39.9999L6.30668 5.09082H12.6305L7.72146 34.6988H23.0965L22.2101 39.9999H0.51123Z" fill="white"/>
<path d="M457.287 153.432C457.116 154.797 457.031 155.736 457.031 156.248C457.031 158.723 457.586 160.643 458.695 162.008C459.89 163.373 461.511 164.056 463.559 164.056L463.047 167C457.074 167 452.594 166.232 449.607 164.696C446.706 163.16 445.255 160.685 445.255 157.272C445.255 156.76 445.34 155.907 445.511 154.712L450.247 126.168C450.503 124.888 450.631 123.693 450.631 122.584C450.631 116.696 447.303 113.752 440.647 113.752C434.844 113.752 429.17 118.787 423.623 128.856L417.223 167H405.703L417.735 95.4479C412.444 95.0212 409.756 94.8079 409.671 94.8079L410.183 91.8639C411.804 91.8639 415.132 90.9679 420.167 89.1759C425.202 87.2985 428.7 86.3599 430.663 86.3599L425.159 119.64C430.279 112.813 435.911 109.4 442.055 109.4C449.138 109.4 454.258 110.381 457.415 112.344C460.572 114.307 462.151 117.592 462.151 122.2C462.151 123.053 461.98 124.675 461.639 127.064L457.287 153.432Z" fill="white"/>
<path d="M386.306 125.656C386.306 123.693 386.903 122.2 388.098 121.176C389.292 120.152 390.487 119.64 391.682 119.64C391.34 115.373 387.33 113.24 379.65 113.24C373.676 113.24 368.514 115.885 364.162 121.176C359.895 126.381 357.762 133.037 357.762 141.144C357.762 147.288 359.255 152.536 362.242 156.888C365.314 161.24 369.068 163.416 373.506 163.416C381.015 163.416 387.458 160.6 392.834 154.968L395.65 156.504C392.492 160.515 388.78 163.501 384.514 165.464C380.247 167.341 374.828 168.28 368.258 168.28C362.028 168.28 356.61 166.445 352.002 162.776C347.479 159.107 345.218 153.048 345.218 144.6C345.218 134.445 348.29 126.04 354.434 119.384C360.578 112.728 368.77 109.4 379.01 109.4C391.724 109.4 398.082 113.155 398.082 120.664C398.082 123.224 397.442 125.315 396.162 126.936C394.967 128.557 393.346 129.368 391.298 129.368C387.97 129.368 386.306 128.131 386.306 125.656Z" fill="white"/>
<path d="M327.823 153.432C327.652 154.798 327.567 155.736 327.567 156.248C327.567 158.723 328.121 160.643 329.231 162.008C330.425 163.374 332.047 164.056 334.095 164.056L333.583 167C323.087 167 317.241 164.483 316.047 159.448C310.159 165.336 304.313 168.28 298.511 168.28C291.599 168.28 286.564 167.171 283.407 164.952C280.249 162.734 278.671 159.32 278.671 154.712C278.671 153.347 278.799 151.811 279.055 150.104L284.815 115.928C284.303 114.222 281.743 113.368 277.135 113.368L277.647 110.68H297.231L290.447 151C290.191 152.28 290.063 153.518 290.063 154.712C290.063 160.856 293.391 163.928 300.047 163.928C305.849 163.928 311.14 161.24 315.919 155.864L323.471 110.68H334.991L327.823 153.432Z" fill="white"/>
<path d="M217.887 144.472C217.887 151.213 219.253 156.248 221.983 159.576C224.799 162.819 228.682 164.44 233.631 164.44C239.605 164.44 244.426 161.24 248.095 154.84C251.85 148.355 253.727 140.76 253.727 132.056C253.727 119.597 248.309 113.368 237.471 113.368C231.669 113.368 226.933 116.525 223.263 122.84C219.679 129.155 217.887 136.365 217.887 144.472ZM231.327 168.28C222.965 168.28 216.565 166.147 212.127 161.88C207.69 157.613 205.471 151.811 205.471 144.472C205.471 134.232 208.501 125.827 214.559 119.256C220.618 112.685 229.194 109.4 240.287 109.4C248.906 109.4 255.349 111.405 259.615 115.416C263.967 119.427 266.143 125.016 266.143 132.184C266.143 142.595 263.114 151.213 257.055 158.04C250.997 164.867 242.421 168.28 231.327 168.28Z" fill="white"/>
<path d="M149.96 92.1201H214.216L212.168 104.536H209.48C209.736 102.744 209.864 101.293 209.864 100.184C209.864 98.2215 209.309 96.9841 208.2 96.4721H187.208L176.328 161.752C176.84 163.459 179.4 164.312 184.008 164.312L183.496 167H155.592L156.104 164.312C160.797 164.312 163.613 163.459 164.552 161.752L175.432 96.4721H154.44C152.648 97.1548 151.368 99.8428 150.6 104.536H147.912L149.96 92.1201Z" fill="white"/>
</svg>
